<?xml version="1.0" encoding="UTF-8" standalone="no"?>
<svg
   xmlns:dc="http://purl.org/dc/elements/1.1/"
   xmlns:cc="http://creativecommons.org/ns#"
   xmlns:rdf="http://www.w3.org/1999/02/22-rdf-syntax-ns#"
   xmlns:svg="http://www.w3.org/2000/svg"
   xmlns="http://www.w3.org/2000/svg"
   xmlns:xlink="http://www.w3.org/1999/xlink"
   xmlns:sodipodi="http://sodipodi.sourceforge.net/DTD/sodipodi-0.dtd"
   xmlns:inkscape="http://www.inkscape.org/namespaces/inkscape"
   sodipodi:docname="Tutorial14_start.svg"
   inkscape:version="1.0.2-2 (e86c870879, 2021-01-15)"
   id="svg8"
   version="1.1"
   viewBox="0 0 215.9 279.4"
   height="1056"
   width="816">
  <defs
     id="defs2">
    <inkscape:path-effect
       effect="powerstroke"
       id="path-effect422"
       is_visible="true"
       lpeversion="1"
       offset_points="1,0.52480786"
       sort_points="true"
       interpolator_type="CubicBezierJohan"
       interpolator_beta="0.2"
       start_linecap_type="zerowidth"
       linejoin_type="extrp_arc"
       miter_limit="4"
       scale_width="1"
       end_linecap_type="zerowidth" />
    <inkscape:path-effect
       effect="powerstroke"
       id="path-effect420"
       is_visible="true"
       lpeversion="1"
       offset_points="1,0.441741"
       sort_points="true"
       interpolator_type="CubicBezierJohan"
       interpolator_beta="0.2"
       start_linecap_type="zerowidth"
       linejoin_type="extrp_arc"
       miter_limit="4"
       scale_width="1"
       end_linecap_type="zerowidth" />
    <inkscape:path-effect
       effect="powerstroke"
       id="path-effect418"
       is_visible="true"
       lpeversion="1"
       offset_points="2,0.5153133"
       sort_points="true"
       interpolator_type="CubicBezierJohan"
       interpolator_beta="0.2"
       start_linecap_type="zerowidth"
       linejoin_type="extrp_arc"
       miter_limit="4"
       scale_width="1"
       end_linecap_type="zerowidth" />
    <inkscape:path-effect
       effect="powerstroke"
       id="path-effect416"
       is_visible="true"
       lpeversion="1"
       offset_points="1,0.441741"
       sort_points="true"
       interpolator_type="CubicBezierJohan"
       interpolator_beta="0.2"
       start_linecap_type="zerowidth"
       linejoin_type="extrp_arc"
       miter_limit="4"
       scale_width="1"
       end_linecap_type="zerowidth" />
    <inkscape:path-effect
       effect="powerstroke"
       id="path-effect414"
       is_visible="true"
       lpeversion="1"
       offset_points="0.99860451,0.34039425"
       sort_points="true"
       interpolator_type="CubicBezierJohan"
       interpolator_beta="0.2"
       start_linecap_type="zerowidth"
       linejoin_type="extrp_arc"
       miter_limit="4"
       scale_width="1"
       end_linecap_type="zerowidth" />
    <inkscape:path-effect
       effect="powerstroke"
       id="path-effect412"
       is_visible="true"
       lpeversion="1"
       offset_points="1,0.36933766"
       sort_points="true"
       interpolator_type="CubicBezierJohan"
       interpolator_beta="0.2"
       start_linecap_type="zerowidth"
       linejoin_type="extrp_arc"
       miter_limit="4"
       scale_width="1"
       end_linecap_type="zerowidth" />
    <inkscape:path-effect
       effect="powerstroke"
       id="path-effect410"
       is_visible="true"
       lpeversion="1"
       offset_points="1.979012,0.45228761"
       sort_points="true"
       interpolator_type="CubicBezierJohan"
       interpolator_beta="0.2"
       start_linecap_type="zerowidth"
       linejoin_type="extrp_arc"
       miter_limit="4"
       scale_width="1"
       end_linecap_type="zerowidth" />
    <inkscape:path-effect
       effect="gears"
       id="path-effect77"
       is_visible="true"
       lpeversion="1"
       teeth="8"
       phi="5"
       min_radius="5" />
    <linearGradient
       inkscape:collect="always"
       id="linearGradient1000">
      <stop
         style="stop-color:#ff55dd;stop-opacity:1;"
         offset="0"
         id="stop996" />
      <stop
         style="stop-color:#ff55dd;stop-opacity:0;"
         offset="1"
         id="stop998" />
    </linearGradient>
    <inkscape:path-effect
       effect="gears"
       id="path-effect68"
       is_visible="true"
       lpeversion="1"
       teeth="8"
       phi="5"
       min_radius="5" />
    <inkscape:path-effect
       effect="skeletal"
       id="path-effect1003"
       is_visible="true"
       lpeversion="1"
       pattern="m 211.68314,92.38081 c -0.0592,0.118331 -0.29798,-0.135463 -0.39792,-0.04878 -0.1,0.08668 0.11752,0.358987 -0.008,0.400823 -0.12551,0.04184 -0.11492,-0.30649 -0.24689,-0.315868 -0.13196,-0.0094 -0.17074,0.336945 -0.28907,0.277779 -0.11833,-0.05916 0.13547,-0.297979 0.0488,-0.397924 -0.0867,-0.09995 -0.35898,0.117525 -0.40082,-0.008 -0.0418,-0.125509 0.30649,-0.114916 0.31587,-0.246881 0.009,-0.131966 -0.33695,-0.17074 -0.27778,-0.289071 0.0592,-0.118331 0.29798,0.135463 0.39792,0.04878 0.0999,-0.08668 -0.11752,-0.358987 0.008,-0.400824 0.12551,-0.04184 0.11491,0.30649 0.24688,0.315869 0.13196,0.0094 0.17074,-0.336945 0.28907,-0.27778 0.11833,0.05917 -0.13546,0.29798 -0.0488,0.397925 0.0867,0.09995 0.35899,-0.117525 0.40082,0.008 0.0418,0.125509 -0.30649,0.114916 -0.31587,0.246881 -0.009,0.131965 0.33695,0.17074 0.27778,0.289071 z"
       copytype="single_stretched"
       prop_scale="1e+10"
       scale_y_rel="false"
       spacing="0"
       normal_offset="0"
       tang_offset="0"
       prop_units="false"
       vertical_pattern="false"
       hide_knot="false"
       fuse_tolerance="0" />
    <inkscape:path-effect
       effect="simplify"
       id="path-effect992"
       is_visible="true"
       lpeversion="1"
       steps="1"
       threshold="0.00569231"
       smooth_angles="360"
       helper_size="0"
       simplify_individual_paths="false"
       simplify_just_coalesce="false" />
    <inkscape:path-effect
       effect="simplify"
       id="path-effect897"
       is_visible="true"
       lpeversion="1"
       steps="1"
       threshold="0.00569231"
       smooth_angles="360"
       helper_size="0"
       simplify_individual_paths="false"
       simplify_just_coalesce="false" />
    <inkscape:path-effect
       effect="simplify"
       id="path-effect893"
       is_visible="true"
       lpeversion="1"
       steps="1"
       threshold="0.00569231"
       smooth_angles="360"
       helper_size="0"
       simplify_individual_paths="false"
       simplify_just_coalesce="false" />
    <inkscape:path-effect
       effect="simplify"
       id="path-effect889"
       is_visible="true"
       lpeversion="1"
       steps="1"
       threshold="0.00569231"
       smooth_angles="360"
       helper_size="0"
       simplify_individual_paths="false"
       simplify_just_coalesce="false" />
    <inkscape:path-effect
       effect="simplify"
       id="path-effect898"
       is_visible="true"
       lpeversion="1"
       steps="1"
       threshold="0.00569231"
       smooth_angles="360"
       helper_size="0"
       simplify_individual_paths="false"
       simplify_just_coalesce="false" />
    <inkscape:path-effect
       effect="simplify"
       id="path-effect894"
       is_visible="true"
       lpeversion="1"
       steps="1"
       threshold="0.00569231"
       smooth_angles="360"
       helper_size="0"
       simplify_individual_paths="false"
       simplify_just_coalesce="false" />
    <inkscape:path-effect
       effect="simplify"
       id="path-effect890"
       is_visible="true"
       lpeversion="1"
       steps="1"
       threshold="0.00569231"
       smooth_angles="360"
       helper_size="0"
       simplify_individual_paths="false"
       simplify_just_coalesce="false" />
    <inkscape:path-effect
       effect="simplify"
       id="path-effect886"
       is_visible="true"
       lpeversion="1"
       steps="1"
       threshold="0.00569231"
       smooth_angles="360"
       helper_size="0"
       simplify_individual_paths="false"
       simplify_just_coalesce="false" />
    <inkscape:path-effect
       effect="skeletal"
       id="path-effect1412"
       is_visible="true"
       lpeversion="1"
       pattern="M 0,0 H 1"
       copytype="single_stretched"
       prop_scale="1000000"
       scale_y_rel="false"
       spacing="0"
       normal_offset="0"
       tang_offset="0"
       prop_units="false"
       vertical_pattern="false"
       hide_knot="false"
       fuse_tolerance="0" />
    <inkscape:path-effect
       effect="skeletal"
       id="path-effect1361"
       is_visible="true"
       lpeversion="1"
       pattern="M 0,0 H 1"
       copytype="single_stretched"
       prop_scale="1"
       scale_y_rel="false"
       spacing="0"
       normal_offset="0"
       tang_offset="0"
       prop_units="false"
       vertical_pattern="false"
       hide_knot="false"
       fuse_tolerance="0" />
    <linearGradient
       inkscape:collect="always"
       xlink:href="#linearGradient1000"
       id="linearGradient1002"
       x1="190.20572"
       y1="85.834778"
       x2="188.93283"
       y2="88.660355"
       gradientUnits="userSpaceOnUse"
       gradientTransform="translate(39.041879,0.39244188)" />
    <inkscape:path-effect
       effect="powerstroke"
       id="path-effect354"
       is_visible="true"
       lpeversion="1"
       offset_points="1.979012,0.45228761"
       sort_points="true"
       interpolator_type="CubicBezierJohan"
       interpolator_beta="0.2"
       start_linecap_type="zerowidth"
       linejoin_type="extrp_arc"
       miter_limit="4"
       scale_width="1"
       end_linecap_type="zerowidth" />
    <inkscape:path-effect
       effect="powerstroke"
       id="path-effect356"
       is_visible="true"
       lpeversion="1"
       offset_points="1,0.36933766"
       sort_points="true"
       interpolator_type="CubicBezierJohan"
       interpolator_beta="0.2"
       start_linecap_type="zerowidth"
       linejoin_type="extrp_arc"
       miter_limit="4"
       scale_width="1"
       end_linecap_type="zerowidth" />
    <inkscape:path-effect
       effect="powerstroke"
       id="path-effect358"
       is_visible="true"
       lpeversion="1"
       offset_points="0.99860451,0.34039425"
       sort_points="true"
       interpolator_type="CubicBezierJohan"
       interpolator_beta="0.2"
       start_linecap_type="zerowidth"
       linejoin_type="extrp_arc"
       miter_limit="4"
       scale_width="1"
       end_linecap_type="zerowidth" />
    <inkscape:path-effect
       effect="powerstroke"
       id="path-effect360"
       is_visible="true"
       lpeversion="1"
       offset_points="1,0.441741"
       sort_points="true"
       interpolator_type="CubicBezierJohan"
       interpolator_beta="0.2"
       start_linecap_type="zerowidth"
       linejoin_type="extrp_arc"
       miter_limit="4"
       scale_width="1"
       end_linecap_type="zerowidth" />
    <inkscape:path-effect
       effect="powerstroke"
       id="path-effect362"
       is_visible="true"
       lpeversion="1"
       offset_points="2,0.5153133"
       sort_points="true"
       interpolator_type="CubicBezierJohan"
       interpolator_beta="0.2"
       start_linecap_type="zerowidth"
       linejoin_type="extrp_arc"
       miter_limit="4"
       scale_width="1"
       end_linecap_type="zerowidth" />
    <inkscape:path-effect
       effect="powerstroke"
       id="path-effect364"
       is_visible="true"
       lpeversion="1"
       offset_points="1,0.441741"
       sort_points="true"
       interpolator_type="CubicBezierJohan"
       interpolator_beta="0.2"
       start_linecap_type="zerowidth"
       linejoin_type="extrp_arc"
       miter_limit="4"
       scale_width="1"
       end_linecap_type="zerowidth" />
    <inkscape:path-effect
       effect="powerstroke"
       id="path-effect366"
       is_visible="true"
       lpeversion="1"
       offset_points="1,0.52480786"
       sort_points="true"
       interpolator_type="CubicBezierJohan"
       interpolator_beta="0.2"
       start_linecap_type="zerowidth"
       linejoin_type="extrp_arc"
       miter_limit="4"
       scale_width="1"
       end_linecap_type="zerowidth" />
  </defs>
  <sodipodi:namedview
     id="base"
     pagecolor="#ffffff"
     bordercolor="#666666"
     borderopacity="1.0"
     inkscape:pageopacity="0.0"
     inkscape:pageshadow="2"
     inkscape:zoom="1.7916667"
     inkscape:cx="822.76294"
     inkscape:cy="335.27296"
     inkscape:document-units="px"
     inkscape:current-layer="layer1"
     inkscape:document-rotation="0"
     showgrid="false"
     inkscape:window-width="1366"
     inkscape:window-height="705"
     inkscape:window-x="-8"
     inkscape:window-y="-8"
     inkscape:window-maximized="1"
     inkscape:snap-global="false"
     inkscape:snap-bbox="true"
     inkscape:bbox-paths="true"
     inkscape:object-nodes="false"
     inkscape:snap-nodes="true"
     inkscape:snap-page="true"
     inkscape:snap-grids="false"
     inkscape:snap-to-guides="false"
     inkscape:snap-others="false"
     inkscape:bbox-nodes="true"
     units="px" />
  <metadata
     id="metadata5">
    <rdf:RDF>
      <cc:Work
         rdf:about="">
        <dc:format>image/svg+xml</dc:format>
        <dc:type
           rdf:resource="http://purl.org/dc/dcmitype/StillImage" />
        <dc:title />
      </cc:Work>
    </rdf:RDF>
  </metadata>
  <g
     inkscape:label="Layer 1"
     inkscape:groupmode="layer"
     id="layer1">
    <g
       id="g155"
       transform="matrix(1.0802,0,0,1.0637606,5.2171123,-11.002053)"
       style="stroke-width:0.93288"
       sodipodi:insensitive="true">
      <path
         style="opacity:0.4;fill:none;stroke:#0000ff;stroke-width:0.466441;stroke-linecap:butt;stroke-linejoin:miter;stroke-miterlimit:4;stroke-dasharray:none;stroke-opacity:1"
         d="M 15.498988,96.380082 C 70.473672,39.388916 124.25085,59.247679 174.63966,86.929924"
         id="path24"
         sodipodi:nodetypes="cc" />
      <path
         style="opacity:0.4;fill:none;stroke:#0000ff;stroke-width:0.466441;stroke-linecap:butt;stroke-linejoin:miter;stroke-miterlimit:4;stroke-dasharray:none;stroke-opacity:1"
         d="m 86.865825,160.05893 c 0,0 8.14584,-20.18264 -3.56533,-38.30443"
         id="path26"
         sodipodi:nodetypes="cc" />
      <path
         style="opacity:0.4;fill:none;stroke:#0000ff;stroke-width:0.466441;stroke-linecap:butt;stroke-linejoin:miter;stroke-miterlimit:4;stroke-dasharray:none;stroke-opacity:1"
         d="M 80.894879,118.54701 C 77.776486,114.23532 72.38612,110.4409 69.668664,106.11799"
         id="path28"
         sodipodi:nodetypes="cc" />
      <path
         style="opacity:0.4;fill:none;stroke:#0000ff;stroke-width:0.466441;stroke-linecap:butt;stroke-linejoin:miter;stroke-miterlimit:4;stroke-dasharray:none;stroke-opacity:1"
         d="m 82.765915,121.62085 c -0.45229,-3.28633 -17.466706,1.05216 -16.70568,-4.00936"
         id="path30"
         sodipodi:nodetypes="cc" />
      <path
         style="opacity:0.4;fill:none;stroke:#0000ff;stroke-width:0.466441;stroke-linecap:butt;stroke-linejoin:miter;stroke-miterlimit:4;stroke-dasharray:none;stroke-opacity:1"
         d="m 64.723781,122.82367 c -11.882525,-3.88838 1.854922,-20.07219 -5.479463,-22.31878"
         id="path32"
         sodipodi:nodetypes="cc" />
      <path
         style="opacity:0.4;fill:none;stroke:#0000ff;stroke-width:0.466441;stroke-linecap:butt;stroke-linejoin:miter;stroke-miterlimit:4;stroke-dasharray:none;stroke-opacity:1"
         d="M 99.87254,133.5153 C 98.007607,118.83993 79.730315,111.00768 74.346251,103.04415"
         id="path34"
         sodipodi:nodetypes="cc" />
      <path
         style="opacity:0.4;fill:none;stroke:#0000ff;stroke-width:0.466441;stroke-linecap:butt;stroke-linejoin:miter;stroke-miterlimit:4;stroke-dasharray:none;stroke-opacity:1"
         d="m 85.572467,114.00307 c 0.770262,-4.6383 4.496048,-8.78404 7.216852,-13.09725"
         id="path36"
         sodipodi:nodetypes="cc" />
      <path
         style="opacity:0.4;fill:none;stroke:#0000ff;stroke-width:0.466441;stroke-linecap:butt;stroke-linejoin:miter;stroke-miterlimit:4;stroke-dasharray:none;stroke-opacity:1"
         d="m 68.198561,95.426357 c 4.802987,-8.1843 22.425761,8.310323 26.060864,3.875718"
         id="path38"
         sodipodi:nodetypes="cc" />
      <path
         style="opacity:0.4;fill:none;stroke:#0000ff;stroke-width:0.466441;stroke-linecap:butt;stroke-linejoin:miter;stroke-miterlimit:4;stroke-dasharray:none;stroke-opacity:1"
         d="m 88.512668,87.27399 12.829972,0.133645"
         id="path40" />
      <path
         style="opacity:0.4;fill:none;stroke:#0000ff;stroke-width:0.466441;stroke-linecap:butt;stroke-linejoin:miter;stroke-miterlimit:4;stroke-dasharray:none;stroke-opacity:1"
         d="m 101.60992,88.343153 h 5.21218"
         id="path42" />
      <path
         style="opacity:0.4;fill:none;stroke:#0000ff;stroke-width:0.466441;stroke-linecap:butt;stroke-linejoin:miter;stroke-miterlimit:4;stroke-dasharray:none;stroke-opacity:1"
         d="m 117.38008,82.997336 6.68228,4.410299"
         id="path44" />
      <path
         style="opacity:0.4;fill:none;stroke:#0000ff;stroke-width:0.466441;stroke-linecap:butt;stroke-linejoin:miter;stroke-miterlimit:4;stroke-dasharray:none;stroke-opacity:1"
         d="m 135.42221,91.684289 -4.54394,-0.26729 -9.88976,4.27665"
         id="path46" />
      <path
         style="opacity:0.4;fill:none;stroke:#0000ff;stroke-width:0.466441;stroke-linecap:butt;stroke-linejoin:miter;stroke-miterlimit:4;stroke-dasharray:none;stroke-opacity:1"
         d="m 124.59694,114.00307 c 6.57649,-5.13964 -5.89816,-8.39632 -11.89445,-10.2907 -6.39687,-6.331667 -11.92841,-10.618027 -14.433702,-7.751428"
         id="path48"
         sodipodi:nodetypes="ccc" />
      <path
         style="opacity:0.4;fill:none;stroke:#0000ff;stroke-width:0.466441;stroke-linecap:butt;stroke-linejoin:miter;stroke-miterlimit:4;stroke-dasharray:none;stroke-opacity:1"
         d="m 104.28283,111.19651 c 0.15551,-3.07837 -0.51212,-6.32139 -2.13833,-9.7561"
         id="path50"
         sodipodi:nodetypes="cc" />
      <path
         style="opacity:0.4;fill:none;stroke:#0000ff;stroke-width:0.466441;stroke-linecap:butt;stroke-linejoin:miter;stroke-miterlimit:4;stroke-dasharray:none;stroke-opacity:1"
         d="m 113.23707,106.51893 c -7.46314,0.83574 -10.90801,11.94042 -15.369225,20.44775"
         id="path52"
         sodipodi:nodetypes="cc" />
      <path
         style="opacity:0.4;fill:none;stroke:#0000ff;stroke-width:0.466441;stroke-linecap:butt;stroke-linejoin:miter;stroke-miterlimit:4;stroke-dasharray:none;stroke-opacity:1"
         d="m 117.64737,110.261 -1.4701,2.9402"
         id="path54" />
      <path
         style="opacity:0.4;fill:none;stroke:#0000ff;stroke-width:0.466441;stroke-linecap:butt;stroke-linejoin:miter;stroke-miterlimit:4;stroke-dasharray:none;stroke-opacity:1"
         d="m 121.38944,110.66194 c -1.90535,3.06597 -12.4095,3.33463 -13.63183,5.88039"
         id="path56"
         sodipodi:nodetypes="cc" />
      <path
         style="opacity:0.4;fill:none;stroke:#0000ff;stroke-width:0.466441;stroke-linecap:butt;stroke-linejoin:miter;stroke-miterlimit:4;stroke-dasharray:none;stroke-opacity:1"
         d="M 113.63801,160.64532 C 103.36544,145.7819 102.39164,129.37894 110.29688,115.07223"
         id="path58"
         sodipodi:nodetypes="cc" />
      <path
         style="opacity:0.4;fill:none;stroke:#0000ff;stroke-width:0.466441;stroke-linecap:butt;stroke-linejoin:miter;stroke-miterlimit:4;stroke-dasharray:none;stroke-opacity:1"
         d="m 55.601361,155.56168 3.774277,7.10453"
         id="path60" />
      <path
         style="opacity:0.4;fill:none;stroke:#0000ff;stroke-width:0.466441;stroke-linecap:butt;stroke-linejoin:miter;stroke-miterlimit:4;stroke-dasharray:none;stroke-opacity:1"
         d="m 63.371932,162.88822 2.442181,7.32653"
         id="path62" />
      <path
         style="opacity:0.4;fill:none;stroke:#0000ff;stroke-width:0.466441;stroke-linecap:butt;stroke-linejoin:miter;stroke-miterlimit:4;stroke-dasharray:none;stroke-opacity:1"
         d="m 68.700326,155.56168 c 1.569261,2.44218 1.788817,4.88436 1.998146,7.32654"
         id="path64"
         sodipodi:nodetypes="cc" />
      <path
         style="opacity:0.4;fill:none;stroke:#0000ff;stroke-width:0.466441;stroke-linecap:butt;stroke-linejoin:miter;stroke-miterlimit:4;stroke-dasharray:none;stroke-opacity:1"
         d="m 78.025013,154.22958 c 1.235722,1.44568 -0.19891,4.6716 -0.444034,7.10452"
         id="path66"
         sodipodi:nodetypes="cc" />
      <path
         style="opacity:0.4;fill:none;stroke:#0000ff;stroke-width:0.466441;stroke-linecap:butt;stroke-linejoin:miter;stroke-miterlimit:4;stroke-dasharray:none;stroke-opacity:1"
         d="m 73.584685,164.22031 3.774279,5.99444"
         id="path68" />
      <path
         style="opacity:0.4;fill:none;stroke:#0000ff;stroke-width:0.466441;stroke-linecap:butt;stroke-linejoin:miter;stroke-miterlimit:4;stroke-dasharray:none;stroke-opacity:1"
         d="m 82.243324,164.88636 c -0.03011,2.40288 0.09082,4.75541 0.888065,6.8825"
         id="path70"
         sodipodi:nodetypes="cc" />
      <path
         style="opacity:0.4;fill:none;stroke:#0000ff;stroke-width:0.466441;stroke-linecap:butt;stroke-linejoin:miter;stroke-miterlimit:4;stroke-dasharray:none;stroke-opacity:1"
         d="m 89.12583,160.22401 1.776131,4.21832"
         id="path72" />
      <path
         style="opacity:0.4;fill:none;stroke:#0000ff;stroke-width:0.466441;stroke-linecap:butt;stroke-linejoin:miter;stroke-miterlimit:4;stroke-dasharray:none;stroke-opacity:1"
         d="M 96.008339,170.65879 94.67624,162.88822"
         id="path74" />
      <path
         style="opacity:0.4;fill:none;stroke:#0000ff;stroke-width:0.466441;stroke-linecap:butt;stroke-linejoin:miter;stroke-miterlimit:4;stroke-dasharray:none;stroke-opacity:1"
         d="m 103.33488,156.44974 -1.77613,9.10267"
         id="path76" />
      <path
         style="opacity:0.4;fill:none;stroke:#0000ff;stroke-width:0.466441;stroke-linecap:butt;stroke-linejoin:miter;stroke-miterlimit:4;stroke-dasharray:none;stroke-opacity:1"
         d="m 106.44311,162.88822 0.22202,5.5504"
         id="path78" />
      <path
         style="opacity:0.4;fill:none;stroke:#0000ff;stroke-width:0.466441;stroke-linecap:butt;stroke-linejoin:miter;stroke-miterlimit:4;stroke-dasharray:none;stroke-opacity:1"
         d="m 115.98981,154.67361 0.44404,6.66049"
         id="path80" />
      <path
         style="opacity:0.4;fill:none;stroke:#0000ff;stroke-width:0.466441;stroke-linecap:butt;stroke-linejoin:miter;stroke-miterlimit:4;stroke-dasharray:none;stroke-opacity:1"
         d="m 118.83651,164.79512 c -0.8824,2.22173 -0.0767,4.34481 0.70556,6.52972"
         id="path82"
         sodipodi:nodetypes="cc" />
      <path
         style="opacity:0.4;fill:none;stroke:#0000ff;stroke-width:0.466441;stroke-linecap:butt;stroke-linejoin:miter;stroke-miterlimit:4;stroke-dasharray:none;stroke-opacity:1"
         d="m 88.237765,154.67361 c 0,0 -1.835082,-0.29471 -1.527179,0.30052 4.046538,5.90592 20.170314,9.52322 21.926904,9.55286 1.7566,0.0296 5.27227,-1.80977 5.77046,-3.83119 0.0561,-0.2154 0.43633,-0.75898 -1.00425,-0.5836"
         id="path84"
         sodipodi:nodetypes="cczcc" />
      <path
         style="opacity:0.4;fill:none;stroke:#0000ff;stroke-width:0.466441;stroke-linecap:butt;stroke-linejoin:miter;stroke-miterlimit:4;stroke-dasharray:none;stroke-opacity:1"
         d="m 113.69008,160.60729 c -1.04659,2.19267 1.7567,1.31279 0.53699,0.0447 -1.6179,-1.68201 -0.51371,0.89567 -0.51371,0.89567 1.92884,16.5283 -10.8894,14.54515 -16.65044,13.16288"
         id="path913"
         sodipodi:nodetypes="cscc" />
      <rect
         style="opacity:0.4;fill:none;fill-rule:evenodd;stroke:#0000ff;stroke-width:0.466441;stroke-linecap:round;stroke-linejoin:bevel;stroke-miterlimit:4;stroke-dasharray:none"
         id="rect915"
         width="181.4796"
         height="34.537636"
         x="4.3656249"
         y="146.82782" />
      <rect
         style="opacity:0.4;fill:none;fill-rule:evenodd;stroke:#0000ff;stroke-width:0.466441;stroke-linecap:round;stroke-linejoin:bevel;stroke-miterlimit:4;stroke-dasharray:none"
         id="rect917"
         width="181.4796"
         height="79.615524"
         x="4.3656249"
         y="181.36546" />
      <rect
         style="opacity:0.4;fill:none;fill-rule:evenodd;stroke:#0000ff;stroke-width:0.466441;stroke-linecap:round;stroke-linejoin:bevel;stroke-miterlimit:4;stroke-dasharray:none"
         id="rect919"
         width="181.4796"
         height="124.47051"
         x="4.3656249"
         y="22.3573" />
      <path
         style="opacity:0.4;fill:none;stroke:#0000ff;stroke-width:0.466441;stroke-linecap:butt;stroke-linejoin:miter;stroke-miterlimit:4;stroke-dasharray:none;stroke-opacity:1"
         d="m 37.993974,192.83118 c 17.024878,-9.46634 39.345737,-14.20891 59.068946,-18.12059 0.701722,1.83935 -3.224679,5.57639 -8.406171,7.52762 -10.659722,5.05956 -20.443474,8.06244 -29.121191,10.06393 -8.647828,1.99462 -16.198753,3.00081 -21.541584,0.52904 z"
         id="path868"
         sodipodi:nodetypes="cccsc" />
      <path
         style="opacity:0.4;fill:none;stroke:#0000ff;stroke-width:0.466441;stroke-linecap:butt;stroke-linejoin:miter;stroke-miterlimit:4;stroke-dasharray:none;stroke-opacity:1"
         d="m 97.383346,174.84785 c -1.474325,3.81129 -0.734835,7.62256 -5.661414,11.43384 0.257872,0 -21.96942,10.99016 -35.41161,12.76594 -7.580396,-0.94491 -18.427357,-5.88343 -18.427357,-5.88343"
         id="path870"
         sodipodi:nodetypes="cccc" />
      <path
         style="opacity:0.4;fill:none;stroke:#0000ff;stroke-width:0.466441;stroke-linecap:butt;stroke-linejoin:miter;stroke-miterlimit:4;stroke-dasharray:none;stroke-opacity:1"
         d="m 55.977299,183.28447 12.09989,6.54948"
         id="path872" />
      <path
         style="opacity:0.4;fill:none;stroke:#0000ff;stroke-width:0.466441;stroke-linecap:butt;stroke-linejoin:miter;stroke-miterlimit:4;stroke-dasharray:none;stroke-opacity:1"
         d="m 67.300133,179.39918 12.09989,6.54948"
         id="path874" />
      <path
         style="opacity:0.4;fill:none;stroke:#0000ff;stroke-width:0.466441;stroke-linecap:butt;stroke-linejoin:miter;stroke-miterlimit:4;stroke-dasharray:none;stroke-opacity:1"
         d="m 97.938391,191.7211 c 2.415749,0.86603 5.042619,1.20557 7.578859,0.70084 3.58241,-0.71292 7.1382,-1.56765 10.76234,-2.06779 3.04837,-0.42068 6.11413,-0.96375 9.18883,-0.85322 1.09069,0.0392 1.87898,1.05208 0.86478,1.98524 -1.21324,1.11629 -3.36558,1.43428 -3.91143,3.0106 -0.42922,1.23951 1.42654,1.41641 2.26959,1.55364 4.37579,0.71228 9.03331,0.30548 13.14111,2.18954 0.61205,0.28072 1.19911,0.61967 1.73399,1.0297"
         id="path888"
         inkscape:path-effect="#path-effect890"
         inkscape:original-d="m 97.938391,191.7211 c 8.082149,2.71071 8.172879,-1.15626 27.530029,-2.22017 5.93737,1.64859 -8.65099,5.23716 -0.77706,6.54948 4.60236,0.76706 11.12346,0.34433 14.8751,3.21924"
         sodipodi:nodetypes="ccsc" />
      <path
         style="opacity:0.4;fill:none;stroke:#0000ff;stroke-width:0.466441;stroke-linecap:butt;stroke-linejoin:miter;stroke-miterlimit:4;stroke-dasharray:none;stroke-opacity:1"
         d="m 81.95321,198.04856 c 4.070432,0.72274 8.211023,0.1213 12.282551,-0.29314 3.641499,-0.37067 7.385399,-1.23529 10.981949,-0.40243 1.02595,0.23758 2.37258,0.33082 2.91207,1.34359 0.76116,1.42891 -0.3964,3.40219 0.77103,4.59182 0.93646,0.95427 2.42859,0.77601 3.62077,0.58952 2.53327,-0.39627 4.98014,-1.22161 7.39643,-2.05508"
         id="path892"
         inkscape:path-effect="#path-effect894"
         inkscape:original-d="m 81.95321,198.04856 c 7.496678,1.48053 19.76615,-2.55298 25.30986,-0.11101 3.81226,1.67928 -4.44496,9.91358 12.65494,3.88529"
         sodipodi:nodetypes="csc" />
      <path
         style="opacity:0.4;fill:none;stroke:#0000ff;stroke-width:0.466441;stroke-linecap:butt;stroke-linejoin:miter;stroke-miterlimit:4;stroke-dasharray:none;stroke-opacity:1"
         d="m 69.631304,203.59897 c 1.809909,1.87324 4.640008,2.04252 7.082769,2.05428 5.519285,0.0266 11.035454,-0.49785 16.403605,-1.69044 1.336597,-0.29694 2.872321,0.38935 2.65395,2.11958 -0.14515,1.15007 -1.748857,3.11984 -0.296353,3.60533 1.971273,0.65889 4.100526,0.78516 6.167805,0.84747 7.45304,0.22465 14.92736,-0.68322 22.16603,-2.41323 0.4062,-0.0971 0.81146,-0.19812 1.21528,-0.30468"
         id="path896"
         inkscape:path-effect="#path-effect898"
         inkscape:original-d="m 69.631304,203.59897 c 4.570177,5.15728 23.649262,-1.27408 25.753898,0.77706 1.744677,1.70032 -2.294379,4.93504 0.777054,5.55041 8.972784,1.79768 22.856374,-0.5239 28.862134,-2.10916"
         sodipodi:nodetypes="cssc" />
    </g>
    <g
       id="g79"
       transform="matrix(0.64152565,0,0,0.64027761,66.472823,6.1338693)"
       style="stroke-width:1.5603">
      <path
         id="path65"
         style="fill:#803300;stroke:#803300;stroke-width:2.06427;stroke-linecap:round;stroke-linejoin:bevel"
         d="m 262.78754,100.32936 c 0,0 0.28936,-0.426153 1.25139,-0.645364 0.27848,0.233709 0.53605,0.491274 0.76975,0.769754 -0.21921,0.96203 -0.64536,1.25139 -0.64536,1.25139 l -1.02367,0.68366 c 0.2732,0.40906 0.46324,0.86787 0.55931,1.35029 l 1.20727,-0.24042 c 0,0 0.50594,-0.0967 1.3412,0.42853 0.0317,0.36218 0.0317,0.72642 0,1.0886 -0.83526,0.52525 -1.3412,0.42853 -1.3412,0.42853 l -1.20727,-0.24042 c -0.0961,0.48242 -0.28611,0.94123 -0.55931,1.35029 l 1.02367,0.68366 c 0,0 0.42615,0.28936 0.64536,1.25139 -0.2337,0.27848 -0.49127,0.53605 -0.76975,0.76975 -0.96203,-0.21921 -1.25139,-0.64536 -1.25139,-0.64536 l -0.68366,-1.02367 c -0.40906,0.2732 -0.86787,0.46324 -1.35029,0.55931 l 0.24042,1.20727 c 0,0 0.0967,0.50594 -0.42853,1.3412 -0.36218,0.0317 -0.72642,0.0317 -1.0886,0 -0.52525,-0.83526 -0.42853,-1.3412 -0.42853,-1.3412 l 0.24042,-1.20727 c -0.48242,-0.0961 -0.94123,-0.28611 -1.35029,-0.55931 l -0.68366,1.02367 c 0,0 -0.28936,0.42615 -1.25139,0.64536 -0.27848,-0.2337 -0.53605,-0.49127 -0.76975,-0.76975 0.21921,-0.96203 0.64536,-1.25139 0.64536,-1.25139 l 1.02367,-0.68366 c -0.2732,-0.40906 -0.46324,-0.86787 -0.55931,-1.35029 l -1.20727,0.24042 c 0,0 -0.50594,0.0967 -1.3412,-0.42853 -0.0317,-0.36218 -0.0317,-0.72642 0,-1.0886 0.83526,-0.52525 1.3412,-0.42853 1.3412,-0.42853 l 1.20727,0.24042 c 0.0961,-0.48242 0.28611,-0.94123 0.55931,-1.35029 l -1.02367,-0.68366 c 0,0 -0.42615,-0.28936 -0.64536,-1.25139 0.2337,-0.27848 0.49127,-0.536045 0.76975,-0.769754 0.96203,0.219211 1.25139,0.645364 1.25139,0.645364 l 0.68366,1.02367 c 0.40906,-0.2732 0.86787,-0.46324 1.35029,-0.55931 l -0.24042,-1.207269 c 0,0 -0.0967,-0.505945 0.42853,-1.341205 0.36218,-0.03166 0.72642,-0.03166 1.0886,0 0.52525,0.83526 0.42853,1.341205 0.42853,1.341205 l -0.24042,1.207269 c 0.48242,0.0961 0.94123,0.28611 1.35029,0.55931 l 0.68366,-1.02367 M 0,0"
         inkscape:path-effect="#path-effect68"
         inkscape:original-d="m 262.33634,102.15634 c 0,1.27863 -1.03653,2.31516 -2.31516,2.31516 -1.27863,0 -2.31516,-1.03653 -2.31516,-2.31516 0.53348,-3.407566 4.55461,-2.490825 4.63032,0 z"
         sodipodi:nodetypes="cscc" />
      <circle
         style="fill:#ffffff;stroke:#ffffff;stroke-width:2.06427;stroke-linecap:round;stroke-linejoin:bevel"
         id="path75"
         cx="259.94882"
         cy="104.25446"
         r="2.0981119" />
    </g>
    <path
       style="fill:none;stroke:url(#linearGradient1002);stroke-width:1.323;stroke-linecap:round;stroke-linejoin:bevel"
       d="m 226.86478,86.965117 c 0.80031,1.353751 2.50957,1.819855 3.98754,1.256664 0.88165,-0.335959 1.32732,-0.643441 1.78758,-0.817141 0.41605,0.269828 1.09556,0.519724 2.07371,0.910986 4.18948,1.675798 6.45152,-2.433873 3.53198,-5.353418 -0.85655,-0.856546 -3.39715,0.527272 -3.45349,0.470932 -1.01539,-1.015392 -0.66878,-1.65268 -2.27617,-1.412793 -1.05184,0.156977 -1.59961,1.594094 -2.11918,1.334305 -2.14036,-1.070176 -3.82354,-0.151404 -3.61047,2.040696"
       id="path994"
       sodipodi:nodetypes="cscsssssc" />
    <g
       id="g258"
       transform="matrix(0.44343978,0,0,0.44343978,130.49104,53.5135)"
       style="display:inline">
      <path
         style="fill:#c4160c;fill-opacity:1;stroke:#c4160c;stroke-width:0.167922px;stroke-linecap:butt;stroke-linejoin:miter;stroke-opacity:1"
         d="m 232.33701,111.38606 c 2.72358,1.80451 5.70502,4.06944 7.97628,5.1776 -0.20589,-1.30882 -0.86789,-2.95986 -1.81916,-4.82774 2.94002,-0.0674 6.40256,-3.70454 9.23571,-6.43701 -1.26245,1.13672 -3.61373,1.07533 -5.80731,0.34982 -2.52054,-0.32512 -4.90017,1.54592 -6.22709,0.69969 -0.24447,-0.71403 1.30913,-1.14407 1.62674,-7.801362 0,0 -1.39492,1.966442 -1.99407,1.906602 -0.8014,-0.725852 0.53204,-0.28264 -1.32938,-3.743249 -1.6232,-2.01972 -2.34165,-3.850746 -2.85117,-5.684851 -0.69863,3.763289 -1.23974,12.22924 -3.77823,7.836348 1.01808,2.472182 2.81375,5.993862 2.3789,7.416542 -0.93657,-0.44069 -4.31452,-1.07294 -7.20666,-1.11948 -1.76482,1.16127 -3.05613,0.58635 -4.268,-0.27987 2.33793,3.42903 5.41027,3.92034 8.11621,5.87727 -1.5679,1.46755 -2.82968,2.96717 -3.84821,4.61786 1.28089,-1.04571 8.22048,-0.8034 9.79544,-3.98817 z"
         id="path1215-0"
         sodipodi:nodetypes="ccccccccccccccccc" />
      <g
         id="g246">
        <path
           style="fill:#ac291b;fill-opacity:1;fill-rule:nonzero;stroke:none;stroke-width:3.35843;stroke-linecap:round;stroke-linejoin:bevel;stroke-opacity:1"
           d="m 231.23477,91.422861 c 0.16388,1.278585 0.31036,2.348235 0.51264,3.687163 0.14107,0.933695 0.2844,1.822237 0.41245,2.726369 0.11405,0.805321 0.21634,1.634503 0.29325,2.600097 0.0739,0.92828 0.12494,1.98571 0.14594,3.31879 -0.002,0.0184 -0.005,0.0451 -0.008,0.0755 -0.003,0.0307 -0.006,0.0675 -0.009,0.10835 -0.007,0.0818 -0.0148,0.18449 -0.0236,0.30087 -0.0178,0.23456 -0.0398,0.53822 -0.0639,0.87228 -0.0534,0.73958 -0.10967,1.52511 -0.17244,2.35519 -0.0701,0.92655 -0.13222,1.69392 -0.1864,2.28781 -0.0315,0.34541 -0.0575,0.60106 -0.0786,0.78461 -0.0121,0.10603 -0.0221,0.18303 -0.0299,0.23717 -0.004,0.0303 -0.008,0.0509 -0.0101,0.0644 -8.1e-4,0.005 -0.001,0.008 -0.002,0.01 -1.3e-4,7.2e-4 0.0371,0.009 0.0899,0.0203 0.12914,0.0286 0.34892,0.0896 0.34799,0.0928 9.3e-4,-0.003 0.22529,0.0393 0.35801,0.0503 0.0542,0.004 0.0928,0.006 0.0935,0.002 0.002,-0.0101 0.004,-0.0203 0.005,-0.0307 0.005,-0.0294 0.009,-0.0628 0.0125,-0.10062 0.007,-0.0678 0.0137,-0.15584 0.0208,-0.26727 0.0121,-0.19147 0.0251,-0.45967 0.0392,-0.80699 0.0236,-0.58328 0.0504,-1.40238 0.0728,-2.30664 0.0197,-0.79669 0.0359,-1.66234 0.0388,-2.36915 10e-4,-0.33866 -3.1e-4,-0.64098 -0.006,-0.8817 -0.003,-0.11906 -0.007,-0.22297 -0.0119,-0.30912 -0.003,-0.043 -0.005,-0.0815 -0.008,-0.11553 -0.003,-0.034 -0.007,-0.0634 -0.0104,-0.0888 -0.0693,-1.3408 -0.16864,-2.4044 -0.28929,-3.33625 -0.12521,-0.967161 -0.27468,-1.798793 -0.42912,-2.597128 -0.17387,-0.898729 -0.35652,-1.779 -0.52778,-2.707074 -0.23321,-1.263764 -0.42089,-2.465543 -0.57611,-3.676517 z"
           id="path338-3"
           inkscape:path-effect="#path-effect410"
           inkscape:original-d="m 231.23477,91.422861 c 0.75994,5.928979 1.41426,7.025627 1.59329,12.324679 0.0239,0.71026 -0.27093,6.85285 -0.37489,7.21671"
           sodipodi:nodetypes="csc" />
        <path
           style="fill:#ac291b;fill-opacity:1;fill-rule:nonzero;stroke:none;stroke-width:3.35843;stroke-linecap:round;stroke-linejoin:bevel;stroke-opacity:1"
           d="m 227.81385,99.483098 c 0.62938,0.668352 1.19693,1.490372 2.31087,2.901802 0.41393,0.52447 0.80793,1 1.19459,1.41753 0.51735,0.55863 0.93174,0.91402 1.24613,1.12361 0,0 0.20487,-0.30731 0.20487,-0.30731 0,0 0.20487,-0.30731 0.20487,-0.30731 -0.29015,-0.19343 -0.67311,-0.44963 -1.24505,-0.93641 -0.42027,-0.35769 -0.85596,-0.76647 -1.3299,-1.23608 -1.07272,-1.06293 -2.11936,-2.159895 -2.58638,-2.655832 z"
           id="path340-9"
           inkscape:path-effect="#path-effect412"
           inkscape:original-d="m 227.81385,99.483098 c 1.55674,1.653122 3.32077,4.045172 4.95646,5.135632"
           sodipodi:nodetypes="cc" />
        <path
           style="fill:#ac291b;fill-opacity:1;fill-rule:nonzero;stroke:none;stroke-width:3.35843;stroke-linecap:round;stroke-linejoin:bevel;stroke-opacity:1"
           d="m 237.37366,98.733308 c -0.26496,0.938495 -0.88415,2.197392 -2.02248,3.551822 -1.07438,1.27833 -2.20746,2.17173 -2.75483,2.63488 -0.001,10e-4 0.21379,0.265 0.21229,0.26627 0.002,-10e-4 0.22592,0.25474 0.22745,0.25344 0.55555,-0.47007 1.6384,-1.54658 2.58732,-2.94925 1.04034,-1.53783 1.4754,-2.78364 1.75025,-3.757162 z"
           id="path342-1"
           inkscape:path-effect="#path-effect414"
           inkscape:original-d="m 237.37366,98.733308 c -0.75433,2.671892 -2.75431,4.922422 -4.56502,6.452972"
           sodipodi:nodetypes="cc" />
        <path
           style="fill:#ac291b;fill-opacity:1;fill-rule:nonzero;stroke:none;stroke-width:3.35843;stroke-linecap:round;stroke-linejoin:bevel;stroke-opacity:1"
           d="m 218.23221,104.96594 c 0.34907,0.29951 0.81554,0.63529 1.4834,0.96546 0.50925,0.25175 1.09058,0.4785 1.77756,0.69218 1.25901,0.39159 2.52021,0.63938 4.00178,0.98321 1.44757,0.33594 2.70567,0.68308 3.80272,1.20007 0.61182,0.28832 1.11122,0.60148 1.52794,0.9381 0.54502,0.44026 0.90692,0.88782 1.16629,1.27687 0,0 0.36755,-0.24503 0.36755,-0.24503 0,0 0.36755,-0.24503 0.36755,-0.24503 -0.3069,-0.46036 -0.75281,-0.96891 -1.4031,-1.44014 -0.49454,-0.35836 -1.07054,-0.66922 -1.74542,-0.93585 -1.19618,-0.47258 -2.53566,-0.74329 -3.99796,-0.98236 -1.50396,-0.24589 -2.77738,-0.41063 -4.04079,-0.71794 -0.69091,-0.16806 -1.28105,-0.35786 -1.79819,-0.5802 -0.67822,-0.2916 -1.16086,-0.61035 -1.50933,-0.90934 z"
           id="path344-7"
           inkscape:path-effect="#path-effect416"
           inkscape:original-d="m 218.23221,104.96594 c 3.50629,3.00841 11.26604,1.51908 14.12724,5.81086"
           sodipodi:nodetypes="cc" />
        <path
           style="fill:#ac291b;fill-opacity:1;fill-rule:nonzero;stroke:none;stroke-width:3.35843;stroke-linecap:round;stroke-linejoin:bevel;stroke-opacity:1"
           d="m 247.49386,105.66887 c -0.33658,0.19927 -0.81088,0.43372 -1.4714,0.6993 -0.50301,0.20226 -1.0776,0.4081 -1.732,0.62184 -1.17399,0.38345 -2.38094,0.72083 -3.57736,1.05869 l 0.0154,-0.005 c -1.74738,0.40765 -3.31188,0.80577 -4.50765,1.10699 -2.20857,0.55633 -2.27648,0.56084 -3.65326,0.89024 0,0 0.11991,0.50117 0.11991,0.50117 0,0 0.11991,0.50117 0.11991,0.50117 0.91044,-0.21783 1.95638,-0.54339 3.64379,-1.09816 1.19348,-0.39238 2.67663,-0.88659 4.4095,-1.40335 0,0 0.0152,-0.005 0.0152,-0.005 0,0 1.7e-4,-7e-5 1.7e-4,-7e-5 1.20351,-0.4646 2.29256,-0.86416 3.4849,-1.35667 0.64227,-0.2653 1.19691,-0.51032 1.69055,-0.74671 0.65081,-0.31165 1.09985,-0.56254 1.44235,-0.76531 z"
           id="path346-0"
           inkscape:path-effect="#path-effect418"
           inkscape:original-d="m 247.49386,105.66887 c -1.70016,1.00657 -4.51515,1.89622 -6.69928,2.62426 -3.4225,0.9084 -5.76466,1.68893 -8.1071,2.24937"
           sodipodi:nodetypes="ccc" />
        <path
           style="fill:#ac291b;fill-opacity:1;fill-rule:nonzero;stroke:none;stroke-width:3.35843;stroke-linecap:round;stroke-linejoin:bevel;stroke-opacity:1"
           d="m 222.98706,115.18182 c 1.13295,-0.98833 2.77923,-2.02997 4.8587,-2.77744 1.84385,-0.66277 3.72973,-0.96933 4.48149,-1.13796 0,0 -0.0967,-0.43103 -0.0967,-0.43103 0,0 -0.0967,-0.43103 -0.0967,-0.43103 -0.79142,0.17752 -2.62435,0.69887 -4.46008,1.59312 -2.09624,1.02115 -3.50762,2.15572 -4.68675,3.18434 z"
           id="path348-9"
           inkscape:path-effect="#path-effect420"
           inkscape:original-d="m 222.98706,115.18182 c 3.18418,-2.77774 6.46192,-3.72249 9.24351,-4.34643"
           sodipodi:nodetypes="cc" />
        <path
           style="fill:#ac291b;fill-opacity:1;fill-rule:nonzero;stroke:none;stroke-width:3.35843;stroke-linecap:round;stroke-linejoin:bevel;stroke-opacity:1"
           d="m 240.27911,116.54081 c -0.0865,-0.20642 -0.21577,-0.4897 -0.43949,-0.8567 -0.17021,-0.27921 -0.38808,-0.5951 -0.6651,-0.94269 -0.48669,-0.61066 -1.11783,-1.27007 -1.85595,-1.89454 -0.73802,-0.62439 -1.51031,-1.15205 -2.24878,-1.53359 -0.4204,-0.21721 -0.81183,-0.37792 -1.17089,-0.48893 -0.4729,-0.14619 -0.86186,-0.19746 -1.16456,-0.19746 0,0 0,0.52481 0,0.52481 0,0 0,0.52481 0,0.52481 0.21363,0 0.5146,0.0121 0.92041,0.093 0.31022,0.0618 0.66662,0.16093 1.07097,0.31269 0.71386,0.26794 1.49458,0.66975 2.27822,1.18472 0.77853,0.5116 1.47121,1.07672 2.01653,1.61311 0.31039,0.30532 0.56169,0.58991 0.75859,0.84564 0.25872,0.33601 0.41375,0.60929 0.50005,0.81514 z"
           id="path350-8"
           inkscape:path-effect="#path-effect422"
           inkscape:original-d="m 240.27911,116.54081 c -0.88247,-2.10497 -4.91688,-5.3891 -7.54477,-5.3891" />
        <path
           style="fill:#c2180e;fill-opacity:1;stroke:none;stroke-width:0.167922px;stroke-linecap:butt;stroke-linejoin:miter;stroke-opacity:1"
           d="m 232.19032,110.88476 c 0.0963,4.25038 -1.18266,8.15639 -2.65292,11.36244 0.19935,0.46297 0.36158,0.99996 0.72901,1.12665 0.21784,-0.3766 0.16574,-1.29233 0.16574,-1.29233 1.32235,-2.85265 2.65953,-8.32977 2.30801,-11.11457 z"
           id="path1200-4"
           sodipodi:nodetypes="cccccc" />
      </g>
    </g>
  </g>
</svg>
